<svg id="Layer_1" data-name="Layer 1" xmlns="http://www.w3.org/2000/svg" viewBox="0 0 145 44.99"><title>logo</title><path d="M13.69,24.06h0s0,0,0,0"/><polygon points="13.23 24.1 3.54 24.1 3.54 0.38 0 0.38 0 25.07 13.23 25.07 13.23 24.1"/><path d="M55.88,10.89A19.66,19.66,0,0,1,51,8.31a3.78,3.78,0,0,1-1.35-3,4,4,0,0,1,1.32-3C53.05.41,56.69.45,60.6,2.68l.51-1.54A16.89,16.89,0,0,0,55.2,0c-3.59,0-6.1,1-7.68,3.05a5.7,5.7,0,0,0-1.18,3.52,5.18,5.18,0,0,0,1.58,3.79,15.32,15.32,0,0,0,4.84,2.91,32.49,32.49,0,0,1,4.45,2.14,4.5,4.5,0,0,1,2.14,3.86,4.57,4.57,0,0,1-1.51,3.45,6.5,6.5,0,0,1-4.59,1.57A9.71,9.71,0,0,1,48,22.77c-.34-.21-.75-.49-1.21-.84l-.57,1.81A18.45,18.45,0,0,0,49.66,25a15.56,15.56,0,0,0,3.76.42c3.8,0,6.42-1.15,8-3.51a6.59,6.59,0,0,0,1.19-3.79A6.19,6.19,0,0,0,61,13.93a15.17,15.17,0,0,0-5.14-3"/><path d="M111.74,7.79c-2.19,1.83-3.3,4.52-3.3,8A9.91,9.91,0,0,0,111.05,23c1.62,1.65,3.87,2.45,6.86,2.45a13.09,13.09,0,0,0,2.63-.22,11.49,11.49,0,0,0,3.07-1.09V22.94a10.13,10.13,0,0,1-1.85,1,7.85,7.85,0,0,1-2.91.53,6,6,0,0,1-5.48-3,11.63,11.63,0,0,1-1.46-6,10.77,10.77,0,0,1,1.93-6.66,6.22,6.22,0,0,1,5.26-2.52,7.84,7.84,0,0,1,2.7.45,10.69,10.69,0,0,1,1.81,1V6.27a17.75,17.75,0,0,0-4.78-.71,10.79,10.79,0,0,0-7.09,2.23"/><path d="M34.11,14.54a10,10,0,0,0-2.49-6.63,8.59,8.59,0,0,0-6.48-2.35A9.61,9.61,0,0,0,18.19,8a10.05,10.05,0,0,0-2.84,7.61,9.48,9.48,0,0,0,2.48,7c1.84,1.88,4.6,2.83,8.21,2.83a16.91,16.91,0,0,0,3.7-.35A18.8,18.8,0,0,0,33,24l-.32-1.26a10.72,10.72,0,0,1-6,1.92c-3.55,0-5.94-1.45-7.09-4.32a13.63,13.63,0,0,1-.89-5.55c0-.38,0-.76.08-1.15a11.44,11.44,0,0,1,1.1-4.16,6.11,6.11,0,0,1,.54-.88,4.94,4.94,0,0,1,.36-.44,5.36,5.36,0,0,1,4.19-1.84,5.2,5.2,0,0,1,3.1.94,5.81,5.81,0,0,1,2.13,2.86A12.67,12.67,0,0,1,30.71,13l.06.61s0,.27,0,.66L21.2,16.33v1Z"/><path d="M145,14.54a10,10,0,0,0-2.48-6.63A8.63,8.63,0,0,0,136,5.56,9.59,9.59,0,0,0,129.09,8c-1.89,1.79-2.84,4.35-2.84,7.61a9.48,9.48,0,0,0,2.48,7c1.83,1.88,4.59,2.83,8.2,2.83a16.85,16.85,0,0,0,3.7-.35,19.16,19.16,0,0,0,3.25-1.1l-.32-1.26a10.76,10.76,0,0,1-6,1.92c-3.56,0-5.94-1.45-7.09-4.32a13.47,13.47,0,0,1-.89-5.55c0-.38,0-.76.07-1.15a11.44,11.44,0,0,1,1.1-4.16,7.15,7.15,0,0,1,.54-.88l.36-.44a5.38,5.38,0,0,1,4.19-1.84,5.18,5.18,0,0,1,3.1.94A5.75,5.75,0,0,1,141,10.09,12.16,12.16,0,0,1,141.6,13l.06.61s0,.27,0,.66l-9.6,2.06v1Z"/><path d="M83.9,10.82a8.12,8.12,0,0,0-1.79-3.1,6.71,6.71,0,0,0-5.18-2.16,7.64,7.64,0,0,0-5.28,2,7.56,7.56,0,0,0-1.47,2l-.37.69V6H66.73v24h3.14V15.72A22.89,22.89,0,0,1,70.05,12a7.84,7.84,0,0,1,1.14-2.88,5.08,5.08,0,0,1,2-1.59A5.83,5.83,0,0,1,75.7,7h0a5.44,5.44,0,0,1,2.37.61,4.31,4.31,0,0,1,1.7,1.54c.9,1.45,1.34,3.54,1.34,6.4A12.63,12.63,0,0,1,79.75,22a4.78,4.78,0,0,1-4.32,2.43,4.91,4.91,0,0,1-3.9-1.72c-.14-.17-.26-.34-.38-.51v1.17a7.15,7.15,0,0,0,5.2,2.08,8.22,8.22,0,0,0,3.22-.64A7.09,7.09,0,0,0,82.11,23c1.57-1.77,2.37-4.39,2.37-7.77a15,15,0,0,0-.58-4.43"/><path d="M105.74,24.18c-.72,0-1.94-.3-1.94-2.29V9.78a3.7,3.7,0,0,0-1.69-3.15A9.39,9.39,0,0,0,97.2,5.56a17.33,17.33,0,0,0-3.66.34A20.56,20.56,0,0,0,90.18,7l.36,1.31a12.81,12.81,0,0,1,2.4-1.26,8.87,8.87,0,0,1,3-.49,5.65,5.65,0,0,1,3.33.92A3,3,0,0,1,100.66,10a2.75,2.75,0,0,1-.84,2.11,5.84,5.84,0,0,1-2.53,1.22c-2.51.69-4.14,1.16-4.84,1.4a11.69,11.69,0,0,0-2.17,1,4.79,4.79,0,0,0-2.47,4.45,5,5,0,0,0,1.74,4,5.43,5.43,0,0,0,3.71,1.2,8.81,8.81,0,0,0,4.17-1,8.85,8.85,0,0,0,1.95-1.55v-.83a5.47,5.47,0,0,1-4.29,1.85A4.31,4.31,0,0,1,92,22.78a4,4,0,0,1-1.15-3,4.67,4.67,0,0,1,1-2.89,7,7,0,0,1,3.45-2.13l3.29-1.14c.24-.1.63-.28,1.17-.55l.91-.45v9.66a3.27,3.27,0,0,0,.71,2.09,4,4,0,0,0,.28.3l.2.18c.82.68,2.74.83,4.74-.22V24a2.27,2.27,0,0,1-.85.19"/><path d="M33.45,38.57c0-.48,0-1-.06-1.46l.28,0,.27,0,.27,0,.28,0c0,.5,0,1-.06,1.46s0,1,0,1.46V42c0,.5,0,1,0,1.46s0,1,.06,1.42l-.55,0-.55,0c0-.46,0-.93.06-1.42s0-1,0-1.46V40c0-.5,0-1,0-1.46"/><path d="M46.92,41.92,44,38.8c0,.21,0,.49,0,.84s0,.84,0,1.44v.59c0,.23,0,.48,0,.73s0,.51,0,.78,0,.5,0,.73,0,.42,0,.59,0,.28,0,.34l-.4,0-.41,0c0-.07,0-.21,0-.41s0-.45.05-.73,0-.59,0-.92,0-.66,0-1l0-1c0-.32,0-.6,0-.85V38.12c0-.51,0-.9,0-1.15h.18l1.47,1.59,1.55,1.67c.51.56,1,1.08,1.46,1.57s.87.91,1.21,1.25V41.52c0-.78,0-1.55,0-2.3s0-1.45-.08-2.11a1.55,1.55,0,0,0,.39.06,1.48,1.48,0,0,0,.36-.06c0,.17,0,.41,0,.74s0,.69-.06,1.06,0,.75,0,1.1,0,.65,0,.87v1.48c0,.27,0,.55,0,.83s0,.55,0,.79,0,.46,0,.64V45h-.16c-.86-1-1.78-2-2.75-3.07"/><path d="M58.82,43.79a1.66,1.66,0,0,0,.37.38,1.76,1.76,0,0,0,.51.27,1.88,1.88,0,0,0,.65.11,1.6,1.6,0,0,0,.67-.13,1.54,1.54,0,0,0,.51-.35,1.52,1.52,0,0,0,.32-.52,1.85,1.85,0,0,0,.11-.63,1.22,1.22,0,0,0-.26-.82,2.24,2.24,0,0,0-.66-.51,8.35,8.35,0,0,0-.85-.37,4,4,0,0,1-.85-.42,2.4,2.4,0,0,1-.66-.65,1.85,1.85,0,0,1-.26-1.06,2,2,0,0,1,.17-.86,1.88,1.88,0,0,1,.48-.67,2.47,2.47,0,0,1,.78-.44,3.56,3.56,0,0,1,1.94,0,2.37,2.37,0,0,1,.73.4c-.06.13-.12.27-.17.41a5.43,5.43,0,0,0-.13.54h-.14a1.42,1.42,0,0,0-.15-.34,1.23,1.23,0,0,0-.26-.35,1.34,1.34,0,0,0-.38-.26,1.27,1.27,0,0,0-.54-.11,1.76,1.76,0,0,0-.58.1,1.61,1.61,0,0,0-.47.29,1.23,1.23,0,0,0-.3.44,1.52,1.52,0,0,0-.11.57,1.2,1.2,0,0,0,.27.83,2.15,2.15,0,0,0,.66.51,6,6,0,0,0,.85.37,6,6,0,0,1,.85.4,2.11,2.11,0,0,1,.65.61,1.66,1.66,0,0,1,.27,1,2.48,2.48,0,0,1-.19,1,2.1,2.1,0,0,1-.54.8,2.27,2.27,0,0,1-.86.53,3.3,3.3,0,0,1-1.17.19A2.8,2.8,0,0,1,59,44.8a3,3,0,0,1-.73-.42,2.79,2.79,0,0,0,.15-.47c0-.13.05-.31.07-.53h.13a2.05,2.05,0,0,0,.25.41"/><path d="M71.18,40c0-.5,0-1,0-1.46s0-1-.06-1.46l.54,0,.55,0h.33l.38,0,.38,0H74a3.24,3.24,0,0,1,.52.07,2.69,2.69,0,0,1,.55.17,1.41,1.41,0,0,1,.49.33,1.53,1.53,0,0,1,.35.53A2,2,0,0,1,76,39a2.11,2.11,0,0,1-.32,1.21,2.35,2.35,0,0,1-.79.72,3.16,3.16,0,0,1-1,.35,5.58,5.58,0,0,1-.93.09h-.47l-.44,0V42c0,.5,0,1,0,1.46s0,1,.06,1.42l-.55,0-.55,0c0-.46,0-.93.06-1.42s0-1,0-1.46Zm.92.84a3.5,3.5,0,0,0,.8.09,3.69,3.69,0,0,0,.72-.08,1.87,1.87,0,0,0,.68-.29,1.49,1.49,0,0,0,.51-.57,2.44,2.44,0,0,0,.06-1.73,1.12,1.12,0,0,0-.38-.47,1.49,1.49,0,0,0-.59-.23,4.62,4.62,0,0,0-.79-.06h-1Z"/><path d="M84.14,38.57c0-.48,0-1-.07-1.46l.29,0,.27,0,.27,0,.28,0c0,.5-.05,1-.06,1.46s0,1,0,1.46V42c0,.5,0,1,0,1.46s0,1,.06,1.42l-.55,0-.56,0c0-.46.05-.93.07-1.42s0-1,0-1.46V40c0-.5,0-1,0-1.46"/><path d="M94,40c0-.5,0-1,0-1.46s0-1-.06-1.46l.64,0,.65,0c.21,0,.43,0,.64,0s.42,0,.64,0a4.43,4.43,0,0,1,.9.09,2.27,2.27,0,0,1,.75.3,1.47,1.47,0,0,1,.5.55,1.63,1.63,0,0,1,.19.84,1.74,1.74,0,0,1-.24.93,2.27,2.27,0,0,1-.59.64,3,3,0,0,1-.75.39,3.43,3.43,0,0,1-.73.19l.37.47.53.67L98,43l.61.76c.19.25.38.47.55.67a5.49,5.49,0,0,0,.42.46l-.34,0h-.67l-.32,0c-.11-.15-.29-.39-.51-.71l-.76-1-.85-1.07c-.29-.36-.56-.66-.8-.91H95V42c0,.5,0,1,0,1.46s0,1,.07,1.42l-.56,0-.55,0c0-.46,0-.93.06-1.42s0-1,0-1.46Zm.93.64a1.67,1.67,0,0,0,.34,0h.41a3.83,3.83,0,0,0,.73-.07,2.33,2.33,0,0,0,.69-.28,1.65,1.65,0,0,0,.52-.53,1.75,1.75,0,0,0,0-1.56,1.27,1.27,0,0,0-.43-.46,1.62,1.62,0,0,0-.56-.23,3.05,3.05,0,0,0-.6-.06h-.65l-.44,0c0,.42,0,.83,0,1.23s0,.81,0,1.22Z"/><path d="M107.6,38.55l-.06-1.44,1,0,1,0,1,0,1,0a1.32,1.32,0,0,0,0,.34,1.37,1.37,0,0,0,0,.34l-.66,0-.63,0-.73,0-.94,0q0,.36,0,.69c0,.21,0,.46,0,.74s0,.58,0,.86v.63l.89,0,.72,0,.6,0,.53,0a1.39,1.39,0,0,0,0,.35,1.32,1.32,0,0,0,0,.34l-.68-.06-.78,0h-1.28v.22a2.63,2.63,0,0,0,0,.3v1.11c0,.43,0,.78,0,1.06s0,.49,0,.63h.79l.84,0,.78,0a4.76,4.76,0,0,0,.63-.09s0,.11,0,.18v.17a1.12,1.12,0,0,0,0,.29l-1,0h-2l-1,0,.06-1.43c0-.48,0-1,0-1.46V40c0-.49,0-1,0-1.46"/></svg>